<svg xmlns="http://www.w3.org/2000/svg" version="1.1" xmlns:xlink="http://www.w3.org/1999/xlink" xmlns:svgjs="http://svgjs.com/svgjs" width="512" height="512"><svg width="512" height="512" viewBox="0 0 512 512" fill="none" xmlns="http://www.w3.org/2000/svg">

  <!-- <circle cx="256" cy="256" r="248" stroke="black" stroke-width="16"/> -->

  <path d="M 256 256
           A 124 124 0 0 1 504 256
           A 248 248 0 0 1 256 504" stroke="black" stroke-width="16"></path>

  <path d="M 256 256
           A 124 124 0 0 1 504 256
           A 248 248 0 0 1 256 504" stroke="black" stroke-width="16" transform="rotate(45, 256, 256)"></path>

  <path d="M 256 256
           A 124 124 0 0 1 504 256
           A 248 248 0 0 1 256 504" stroke="black" stroke-width="16" transform="rotate(90, 256, 256)"></path>

  <path d="M 256 256
           A 124 124 0 0 1 504 256
           A 248 248 0 0 1 256 504" stroke="black" stroke-width="16" transform="rotate(135, 256, 256)"></path>

  <path d="M 256 256
           A 124 124 0 0 1 504 256
           A 248 248 0 0 1 256 504" stroke="black" stroke-width="16" transform="rotate(180, 256, 256)"></path>

  <path d="M 256 256
           A 124 124 0 0 1 504 256
           A 248 248 0 0 1 8 256" stroke="black" stroke-width="16" transform="rotate(225, 256, 256)"></path>

</svg>
</svg>