<svg width="64" height="64" viewBox="0 0 64 64" fill="none" xmlns="http://www.w3.org/2000/svg">
  <circle cx="32" cy="32" r="32" fill="#2775CA"/>
  <path d="M40.7 24.3C39.3 23.2 37.3 22.6 34.8 22.4V19.8H30.9V22.5C30.2 22.6 29.5 22.7 28.9 22.9C25.4 23.9 23.1 26.6 23.1 30.2C23.1 33.7 25.2 35.7 29.5 36.7L30.9 37V43.2C28.9 43 27.2 42.2 25.8 40.9L23 44C24.9 45.8 27.6 46.9 30.9 47.2V50H34.8V47.2C35.5 47.1 36.2 47 36.8 46.8C40.5 45.7 42.9 42.9 42.9 39.1C42.9 35.4 40.6 33.3 36 32.2L34.8 31.9V25.9C36.1 26.1 37.3 26.7 38.4 27.6L40.7 24.3ZM30.9 31.1L30.2 30.9C28.2 30.4 27.2 29.7 27.2 28.3C27.2 26.8 28.5 25.7 30.9 25.4V31.1ZM34.8 38V43.9C37.3 43.5 38.7 42.3 38.7 40.6C38.7 39 37.6 38.4 35.3 37.8L34.8 38Z" fill="white"/>
  <path d="M16.3 24.5C14.7 26.7 13.8 29.5 13.8 32.5C13.8 35.5 14.7 38.3 16.3 40.5" stroke="white" stroke-width="3" stroke-linecap="round"/>
  <path d="M47.7 24.5C49.3 26.7 50.2 29.5 50.2 32.5C50.2 35.5 49.3 38.3 47.7 40.5" stroke="white" stroke-width="3" stroke-linecap="round"/>
</svg>
