<svg width="64" height="64" viewBox="0 0 64 64" fill="none" xmlns="http://www.w3.org/2000/svg">
  <circle cx="32" cy="32" r="32" fill="#26A17B"/>
  <path d="M36.6 24.4V19H47.7V11H16.3V19H27.4V24.4C18.4 24.8 11.6 26.6 11.6 28.8C11.6 31 18.4 32.8 27.4 33.2V50H36.6V33.2C45.6 32.8 52.4 31 52.4 28.8C52.4 26.6 45.6 24.8 36.6 24.4ZM32 31.1C22.1 31.1 14.1 29.9 14.1 28.4C14.1 27.1 19.7 26 27.4 25.7V29.5C28.9 29.6 30.4 29.7 32 29.7C33.6 29.7 35.1 29.6 36.6 29.5V25.7C44.3 26 49.9 27.1 49.9 28.4C49.9 29.9 41.9 31.1 32 31.1Z" fill="white"/>
</svg>
